<svg width="325" height="320" viewBox="0 0 325 320" fill="none" xmlns="http://www.w3.org/2000/svg">
<rect x="0.5" y="0.5" width="323.099" height="319" rx="159.5" fill="#161E22"/>
<rect x="0.5" y="0.5" width="323.099" height="319" rx="159.5" stroke="#1C252A"/>
<g filter="url(#filter0_iiii_36_642)">
<rect x="20" y="20" width="280" height="280" rx="140" fill="#161E22"/>
<path d="M172.048 114.758C171.054 112.383 169.379 110.355 167.236 108.929C165.092 107.502 162.575 106.741 160 106.741C157.425 106.741 154.908 107.502 152.764 108.929C150.621 110.355 148.946 112.383 147.952 114.758C145.804 115.739 143.983 117.318 142.706 119.305C141.429 121.292 140.75 123.604 140.75 125.966C140.733 132.531 146.25 138.203 152.805 138.375C154.822 138.424 156.819 137.979 158.625 137.081V143.875C158.625 144.24 158.77 144.589 159.028 144.847C159.286 145.105 159.635 145.25 160 145.25C160.365 145.25 160.714 145.105 160.972 144.847C161.23 144.589 161.375 144.24 161.375 143.875V137.081C163.084 137.93 164.967 138.372 166.875 138.375H167.188C173.75 138.203 179.269 132.531 179.25 125.966C179.25 123.604 178.571 121.292 177.294 119.305C176.017 117.318 174.197 115.739 172.048 114.758ZM167.124 135.625C165.074 135.678 163.06 135.076 161.375 133.906V126.859L168.865 123.116C169.027 123.035 169.171 122.923 169.289 122.787C169.408 122.65 169.498 122.492 169.555 122.32C169.612 122.149 169.635 121.968 169.622 121.788C169.61 121.608 169.561 121.432 169.481 121.27C169.4 121.108 169.288 120.964 169.152 120.846C169.015 120.728 168.857 120.637 168.685 120.58C168.514 120.523 168.333 120.5 168.153 120.513C167.972 120.526 167.796 120.574 167.635 120.655L161.375 123.776V119.125C161.375 118.76 161.23 118.411 160.972 118.153C160.714 117.895 160.365 117.75 160 117.75C159.635 117.75 159.286 117.895 159.028 118.153C158.77 118.411 158.625 118.76 158.625 119.125V127.901L152.365 124.769C152.039 124.606 151.661 124.579 151.315 124.695C150.969 124.81 150.683 125.058 150.519 125.385C150.356 125.711 150.329 126.089 150.445 126.435C150.56 126.781 150.808 127.067 151.135 127.231L158.625 130.974V133.896C156.941 135.067 154.926 135.669 152.876 135.615C147.78 135.493 143.486 131.074 143.5 125.973C143.499 124.054 144.073 122.179 145.149 120.591C146.225 119.002 147.753 117.773 149.535 117.063C149.713 116.991 149.875 116.882 150.009 116.744C150.143 116.606 150.247 116.441 150.313 116.26C151.038 114.274 152.357 112.558 154.089 111.346C155.822 110.135 157.886 109.485 160 109.485C162.115 109.485 164.178 110.135 165.911 111.346C167.643 112.558 168.962 114.274 169.687 116.26C169.753 116.441 169.857 116.606 169.991 116.744C170.125 116.882 170.287 116.991 170.466 117.063C172.247 117.774 173.775 119.003 174.851 120.591C175.926 122.18 176.501 124.054 176.5 125.973C176.514 131.074 172.22 135.493 167.124 135.625Z" fill="#33C5E0"/>
<path d="M112.198 168.364V181H109.12V175.798H104.332V181H101.254V168.364H104.332V173.314H109.12V168.364H112.198ZM118.992 181.144C118.008 181.144 117.12 180.934 116.328 180.514C115.548 180.094 114.93 179.494 114.474 178.714C114.03 177.934 113.808 177.022 113.808 175.978C113.808 174.946 114.036 174.04 114.492 173.26C114.948 172.468 115.572 171.862 116.364 171.442C117.156 171.022 118.044 170.812 119.028 170.812C120.012 170.812 120.9 171.022 121.692 171.442C122.484 171.862 123.108 172.468 123.564 173.26C124.02 174.04 124.248 174.946 124.248 175.978C124.248 177.01 124.014 177.922 123.546 178.714C123.09 179.494 122.46 180.094 121.656 180.514C120.864 180.934 119.976 181.144 118.992 181.144ZM118.992 178.48C119.58 178.48 120.078 178.264 120.486 177.832C120.906 177.4 121.116 176.782 121.116 175.978C121.116 175.174 120.912 174.556 120.504 174.124C120.108 173.692 119.616 173.476 119.028 173.476C118.428 173.476 117.93 173.692 117.534 174.124C117.138 174.544 116.94 175.162 116.94 175.978C116.94 176.782 117.132 177.4 117.516 177.832C117.912 178.264 118.404 178.48 118.992 178.48ZM140.299 170.956L137.581 181H134.179L132.595 174.484L130.957 181H127.573L124.837 170.956H127.915L129.337 178.138L131.029 170.956H134.287L135.997 178.102L137.401 170.956H140.299ZM148.365 168.364V181H145.287V168.364H148.365ZM156.193 178.39V181H154.627C153.511 181 152.641 180.73 152.017 180.19C151.393 179.638 151.081 178.744 151.081 177.508V173.512H149.857V170.956H151.081V168.508H154.159V170.956H156.175V173.512H154.159V177.544C154.159 177.844 154.231 178.06 154.375 178.192C154.519 178.324 154.759 178.39 155.095 178.39H156.193ZM179.11 168.364L175.816 181H172.09L170.074 172.684L167.986 181H164.26L161.056 168.364H164.35L166.168 177.562L168.418 168.364H171.802L173.962 177.562L175.798 168.364H179.11ZM185.226 181.144C184.242 181.144 183.354 180.934 182.562 180.514C181.782 180.094 181.164 179.494 180.708 178.714C180.264 177.934 180.042 177.022 180.042 175.978C180.042 174.946 180.27 174.04 180.726 173.26C181.182 172.468 181.806 171.862 182.598 171.442C183.39 171.022 184.278 170.812 185.262 170.812C186.246 170.812 187.134 171.022 187.926 171.442C188.718 171.862 189.342 172.468 189.798 173.26C190.254 174.04 190.482 174.946 190.482 175.978C190.482 177.01 190.248 177.922 189.78 178.714C189.324 179.494 188.694 180.094 187.89 180.514C187.098 180.934 186.21 181.144 185.226 181.144ZM185.226 178.48C185.814 178.48 186.312 178.264 186.72 177.832C187.14 177.4 187.35 176.782 187.35 175.978C187.35 175.174 187.146 174.556 186.738 174.124C186.342 173.692 185.85 173.476 185.262 173.476C184.662 173.476 184.164 173.692 183.768 174.124C183.372 174.544 183.174 175.162 183.174 175.978C183.174 176.782 183.366 177.4 183.75 177.832C184.146 178.264 184.638 178.48 185.226 178.48ZM195.193 172.63C195.553 172.078 196.003 171.646 196.543 171.334C197.083 171.01 197.683 170.848 198.343 170.848V174.106H197.497C196.729 174.106 196.153 174.274 195.769 174.61C195.385 174.934 195.193 175.51 195.193 176.338V181H192.115V170.956H195.193V172.63ZM205.952 181L202.892 176.788V181H199.814V167.68H202.892V175.042L205.934 170.956H209.732L205.556 175.996L209.768 181H205.952ZM215.027 181.144C214.151 181.144 213.371 180.994 212.687 180.694C212.003 180.394 211.463 179.986 211.067 179.47C210.671 178.942 210.449 178.354 210.401 177.706H213.443C213.479 178.054 213.641 178.336 213.929 178.552C214.217 178.768 214.571 178.876 214.991 178.876C215.375 178.876 215.669 178.804 215.873 178.66C216.089 178.504 216.197 178.306 216.197 178.066C216.197 177.778 216.047 177.568 215.747 177.436C215.447 177.292 214.961 177.136 214.289 176.968C213.569 176.8 212.969 176.626 212.489 176.446C212.009 176.254 211.595 175.96 211.247 175.564C210.899 175.156 210.725 174.61 210.725 173.926C210.725 173.35 210.881 172.828 211.193 172.36C211.517 171.88 211.985 171.502 212.597 171.226C213.221 170.95 213.959 170.812 214.811 170.812C216.071 170.812 217.061 171.124 217.781 171.748C218.513 172.372 218.933 173.2 219.041 174.232H216.197C216.149 173.884 215.993 173.608 215.729 173.404C215.477 173.2 215.141 173.098 214.721 173.098C214.361 173.098 214.085 173.17 213.893 173.314C213.701 173.446 213.605 173.632 213.605 173.872C213.605 174.16 213.755 174.376 214.055 174.52C214.367 174.664 214.847 174.808 215.495 174.952C216.239 175.144 216.845 175.336 217.313 175.528C217.781 175.708 218.189 176.008 218.537 176.428C218.897 176.836 219.083 177.388 219.095 178.084C219.095 178.672 218.927 179.2 218.591 179.668C218.267 180.124 217.793 180.484 217.169 180.748C216.557 181.012 215.843 181.144 215.027 181.144Z" fill="#FCFFFF"/>
<path d="M67.596 199.242V209H66.322V204.576H61.352V209H60.078V199.242H61.352V203.526H66.322V199.242H67.596ZM76.7714 204.87C76.7714 205.113 76.7574 205.369 76.7294 205.64H70.5974C70.644 206.396 70.9007 206.989 71.3674 207.418C71.8434 207.838 72.4174 208.048 73.0894 208.048C73.64 208.048 74.0974 207.922 74.4614 207.67C74.8347 207.409 75.096 207.063 75.2454 206.634H76.6174C76.412 207.371 76.0014 207.973 75.3854 208.44C74.7694 208.897 74.004 209.126 73.0894 209.126C72.3614 209.126 71.708 208.963 71.1294 208.636C70.56 208.309 70.112 207.847 69.7854 207.25C69.4587 206.643 69.2954 205.943 69.2954 205.15C69.2954 204.357 69.454 203.661 69.7714 203.064C70.0887 202.467 70.532 202.009 71.1014 201.692C71.68 201.365 72.3427 201.202 73.0894 201.202C73.8174 201.202 74.4614 201.361 75.0214 201.678C75.5814 201.995 76.0107 202.434 76.3094 202.994C76.6174 203.545 76.7714 204.17 76.7714 204.87ZM75.4554 204.604C75.4554 204.119 75.348 203.703 75.1334 203.358C74.9187 203.003 74.6247 202.737 74.2514 202.56C73.8874 202.373 73.4814 202.28 73.0334 202.28C72.3894 202.28 71.8387 202.485 71.3814 202.896C70.9334 203.307 70.6767 203.876 70.6114 204.604H75.4554ZM79.727 202.574C79.951 202.135 80.2683 201.795 80.679 201.552C81.099 201.309 81.6077 201.188 82.205 201.188V202.504H81.869C80.441 202.504 79.727 203.279 79.727 204.828V209H78.453V201.328H79.727V202.574ZM90.6757 204.87C90.6757 205.113 90.6617 205.369 90.6337 205.64H84.5017C84.5483 206.396 84.805 206.989 85.2717 207.418C85.7477 207.838 86.3217 208.048 86.9937 208.048C87.5443 208.048 88.0017 207.922 88.3657 207.67C88.739 207.409 89.0003 207.063 89.1497 206.634H90.5217C90.3163 207.371 89.9057 207.973 89.2897 208.44C88.6737 208.897 87.9083 209.126 86.9937 209.126C86.2657 209.126 85.6123 208.963 85.0337 208.636C84.4643 208.309 84.0163 207.847 83.6897 207.25C83.363 206.643 83.1997 205.943 83.1997 205.15C83.1997 204.357 83.3583 203.661 83.6757 203.064C83.993 202.467 84.4363 202.009 85.0057 201.692C85.5843 201.365 86.247 201.202 86.9937 201.202C87.7217 201.202 88.3657 201.361 88.9257 201.678C89.4857 201.995 89.915 202.434 90.2137 202.994C90.5217 203.545 90.6757 204.17 90.6757 204.87ZM89.3597 204.604C89.3597 204.119 89.2523 203.703 89.0377 203.358C88.823 203.003 88.529 202.737 88.1557 202.56C87.7917 202.373 87.3857 202.28 86.9377 202.28C86.2937 202.28 85.743 202.485 85.2857 202.896C84.8377 203.307 84.581 203.876 84.5157 204.604H89.3597ZM92.5533 199.242H93.9673L92.6233 202.42H91.7273L92.5533 199.242ZM98.1358 209.126C97.5478 209.126 97.0205 209.028 96.5538 208.832C96.0871 208.627 95.7185 208.347 95.4478 207.992C95.1771 207.628 95.0278 207.213 94.9998 206.746H96.3158C96.3531 207.129 96.5305 207.441 96.8478 207.684C97.1745 207.927 97.5991 208.048 98.1218 208.048C98.6071 208.048 98.9898 207.941 99.2698 207.726C99.5498 207.511 99.6898 207.241 99.6898 206.914C99.6898 206.578 99.5405 206.331 99.2418 206.172C98.9431 206.004 98.4811 205.841 97.8558 205.682C97.2865 205.533 96.8198 205.383 96.4558 205.234C96.1011 205.075 95.7931 204.847 95.5318 204.548C95.2798 204.24 95.1538 203.839 95.1538 203.344C95.1538 202.952 95.2705 202.593 95.5038 202.266C95.7371 201.939 96.0685 201.683 96.4978 201.496C96.9271 201.3 97.4171 201.202 97.9678 201.202C98.8171 201.202 99.5031 201.417 100.026 201.846C100.548 202.275 100.828 202.863 100.866 203.61H99.5918C99.5638 203.209 99.4005 202.887 99.1018 202.644C98.8125 202.401 98.4205 202.28 97.9258 202.28C97.4685 202.28 97.1045 202.378 96.8338 202.574C96.5631 202.77 96.4278 203.027 96.4278 203.344C96.4278 203.596 96.5071 203.806 96.6658 203.974C96.8338 204.133 97.0391 204.263 97.2818 204.366C97.5338 204.459 97.8791 204.567 98.3178 204.688C98.8685 204.837 99.3165 204.987 99.6618 205.136C100.007 205.276 100.301 205.491 100.544 205.78C100.796 206.069 100.926 206.447 100.936 206.914C100.936 207.334 100.819 207.712 100.586 208.048C100.352 208.384 100.021 208.65 99.5918 208.846C99.1718 209.033 98.6865 209.126 98.1358 209.126ZM110.275 201.188C110.853 201.188 111.376 201.314 111.843 201.566C112.309 201.809 112.673 202.177 112.935 202.672C113.205 203.167 113.341 203.769 113.341 204.478V209H112.081V204.66C112.081 203.895 111.889 203.311 111.507 202.91C111.124 202.499 110.601 202.294 109.939 202.294C109.267 202.294 108.73 202.504 108.329 202.924C107.937 203.344 107.741 203.955 107.741 204.758V209H106.467V198.64H107.741V202.42C107.993 202.028 108.338 201.725 108.777 201.51C109.225 201.295 109.724 201.188 110.275 201.188ZM118.768 209.126C118.049 209.126 117.396 208.963 116.808 208.636C116.229 208.309 115.772 207.847 115.436 207.25C115.109 206.643 114.946 205.943 114.946 205.15C114.946 204.366 115.114 203.675 115.45 203.078C115.795 202.471 116.262 202.009 116.85 201.692C117.438 201.365 118.096 201.202 118.824 201.202C119.552 201.202 120.21 201.365 120.798 201.692C121.386 202.009 121.848 202.467 122.184 203.064C122.529 203.661 122.702 204.357 122.702 205.15C122.702 205.943 122.524 206.643 122.17 207.25C121.824 207.847 121.353 208.309 120.756 208.636C120.158 208.963 119.496 209.126 118.768 209.126ZM118.768 208.006C119.225 208.006 119.654 207.899 120.056 207.684C120.457 207.469 120.779 207.147 121.022 206.718C121.274 206.289 121.4 205.766 121.4 205.15C121.4 204.534 121.278 204.011 121.036 203.582C120.793 203.153 120.476 202.835 120.084 202.63C119.692 202.415 119.267 202.308 118.81 202.308C118.343 202.308 117.914 202.415 117.522 202.63C117.139 202.835 116.831 203.153 116.598 203.582C116.364 204.011 116.248 204.534 116.248 205.15C116.248 205.775 116.36 206.303 116.584 206.732C116.817 207.161 117.125 207.483 117.508 207.698C117.89 207.903 118.31 208.006 118.768 208.006ZM134.597 201.328L132.203 209H130.887L129.039 202.91L127.191 209H125.875L123.467 201.328H124.769L126.533 207.768L128.437 201.328H129.739L131.601 207.782L133.337 201.328H134.597ZM146.202 201.328L141.582 212.612H140.266L141.778 208.916L138.684 201.328H140.098L142.506 207.544L144.886 201.328H146.202ZM150.828 209.126C150.11 209.126 149.456 208.963 148.868 208.636C148.29 208.309 147.832 207.847 147.496 207.25C147.17 206.643 147.006 205.943 147.006 205.15C147.006 204.366 147.174 203.675 147.51 203.078C147.856 202.471 148.322 202.009 148.91 201.692C149.498 201.365 150.156 201.202 150.884 201.202C151.612 201.202 152.27 201.365 152.858 201.692C153.446 202.009 153.908 202.467 154.244 203.064C154.59 203.661 154.762 204.357 154.762 205.15C154.762 205.943 154.585 206.643 154.23 207.25C153.885 207.847 153.414 208.309 152.816 208.636C152.219 208.963 151.556 209.126 150.828 209.126ZM150.828 208.006C151.286 208.006 151.715 207.899 152.116 207.684C152.518 207.469 152.84 207.147 153.082 206.718C153.334 206.289 153.46 205.766 153.46 205.15C153.46 204.534 153.339 204.011 153.096 203.582C152.854 203.153 152.536 202.835 152.144 202.63C151.752 202.415 151.328 202.308 150.87 202.308C150.404 202.308 149.974 202.415 149.582 202.63C149.2 202.835 148.892 203.153 148.658 203.582C148.425 204.011 148.308 204.534 148.308 205.15C148.308 205.775 148.42 206.303 148.644 206.732C148.878 207.161 149.186 207.483 149.568 207.698C149.951 207.903 150.371 208.006 150.828 208.006ZM163.241 201.328V209H161.967V207.866C161.725 208.258 161.384 208.566 160.945 208.79C160.516 209.005 160.04 209.112 159.517 209.112C158.92 209.112 158.383 208.991 157.907 208.748C157.431 208.496 157.053 208.123 156.773 207.628C156.503 207.133 156.367 206.531 156.367 205.822V201.328H157.627V205.654C157.627 206.41 157.819 206.993 158.201 207.404C158.584 207.805 159.107 208.006 159.769 208.006C160.451 208.006 160.987 207.796 161.379 207.376C161.771 206.956 161.967 206.345 161.967 205.542V201.328H163.241ZM166.666 202.574C166.89 202.135 167.208 201.795 167.618 201.552C168.038 201.309 168.547 201.188 169.144 201.188V202.504H168.808C167.38 202.504 166.666 203.279 166.666 204.828V209H165.392V201.328H166.666V202.574ZM175.622 198.64V209H174.348V198.64H175.622ZM184.793 204.87C184.793 205.113 184.779 205.369 184.751 205.64H178.619C178.666 206.396 178.922 206.989 179.389 207.418C179.865 207.838 180.439 208.048 181.111 208.048C181.662 208.048 182.119 207.922 182.483 207.67C182.856 207.409 183.118 207.063 183.267 206.634H184.639C184.434 207.371 184.023 207.973 183.407 208.44C182.791 208.897 182.026 209.126 181.111 209.126C180.383 209.126 179.73 208.963 179.151 208.636C178.582 208.309 178.134 207.847 177.807 207.25C177.48 206.643 177.317 205.943 177.317 205.15C177.317 204.357 177.476 203.661 177.793 203.064C178.11 202.467 178.554 202.009 179.123 201.692C179.702 201.365 180.364 201.202 181.111 201.202C181.839 201.202 182.483 201.361 183.043 201.678C183.603 201.995 184.032 202.434 184.331 202.994C184.639 203.545 184.793 204.17 184.793 204.87ZM183.477 204.604C183.477 204.119 183.37 203.703 183.155 203.358C182.94 203.003 182.646 202.737 182.273 202.56C181.909 202.373 181.503 202.28 181.055 202.28C180.411 202.28 179.86 202.485 179.403 202.896C178.955 203.307 178.698 203.876 178.633 204.604H183.477ZM189.638 201.202C190.301 201.202 190.88 201.347 191.374 201.636C191.878 201.925 192.252 202.289 192.494 202.728V201.328H193.782V209.168C193.782 209.868 193.633 210.489 193.334 211.03C193.036 211.581 192.606 212.01 192.046 212.318C191.496 212.626 190.852 212.78 190.114 212.78C189.106 212.78 188.266 212.542 187.594 212.066C186.922 211.59 186.526 210.941 186.404 210.12H187.664C187.804 210.587 188.094 210.96 188.532 211.24C188.971 211.529 189.498 211.674 190.114 211.674C190.814 211.674 191.384 211.455 191.822 211.016C192.27 210.577 192.494 209.961 192.494 209.168V207.558C192.242 208.006 191.869 208.379 191.374 208.678C190.88 208.977 190.301 209.126 189.638 209.126C188.957 209.126 188.336 208.958 187.776 208.622C187.226 208.286 186.792 207.815 186.474 207.208C186.157 206.601 185.998 205.911 185.998 205.136C185.998 204.352 186.157 203.666 186.474 203.078C186.792 202.481 187.226 202.019 187.776 201.692C188.336 201.365 188.957 201.202 189.638 201.202ZM192.494 205.15C192.494 204.571 192.378 204.067 192.144 203.638C191.911 203.209 191.594 202.882 191.192 202.658C190.8 202.425 190.366 202.308 189.89 202.308C189.414 202.308 188.98 202.42 188.588 202.644C188.196 202.868 187.884 203.195 187.65 203.624C187.417 204.053 187.3 204.557 187.3 205.136C187.3 205.724 187.417 206.237 187.65 206.676C187.884 207.105 188.196 207.437 188.588 207.67C188.98 207.894 189.414 208.006 189.89 208.006C190.366 208.006 190.8 207.894 191.192 207.67C191.594 207.437 191.911 207.105 192.144 206.676C192.378 206.237 192.494 205.729 192.494 205.15ZM195.459 205.136C195.459 204.352 195.618 203.666 195.935 203.078C196.253 202.481 196.687 202.019 197.237 201.692C197.797 201.365 198.418 201.202 199.099 201.202C199.771 201.202 200.355 201.347 200.849 201.636C201.344 201.925 201.713 202.289 201.955 202.728V201.328H203.243V209H201.955V207.572C201.703 208.02 201.325 208.393 200.821 208.692C200.327 208.981 199.748 209.126 199.085 209.126C198.404 209.126 197.788 208.958 197.237 208.622C196.687 208.286 196.253 207.815 195.935 207.208C195.618 206.601 195.459 205.911 195.459 205.136ZM201.955 205.15C201.955 204.571 201.839 204.067 201.605 203.638C201.372 203.209 201.055 202.882 200.653 202.658C200.261 202.425 199.827 202.308 199.351 202.308C198.875 202.308 198.441 202.42 198.049 202.644C197.657 202.868 197.345 203.195 197.111 203.624C196.878 204.053 196.761 204.557 196.761 205.136C196.761 205.724 196.878 206.237 197.111 206.676C197.345 207.105 197.657 207.437 198.049 207.67C198.441 207.894 198.875 208.006 199.351 208.006C199.827 208.006 200.261 207.894 200.653 207.67C201.055 207.437 201.372 207.105 201.605 206.676C201.839 206.237 201.955 205.729 201.955 205.15ZM204.92 205.15C204.92 204.357 205.079 203.666 205.396 203.078C205.714 202.481 206.152 202.019 206.712 201.692C207.282 201.365 207.93 201.202 208.658 201.202C209.601 201.202 210.376 201.431 210.982 201.888C211.598 202.345 212.004 202.98 212.2 203.792H210.828C210.698 203.325 210.441 202.957 210.058 202.686C209.685 202.415 209.218 202.28 208.658 202.28C207.93 202.28 207.342 202.532 206.894 203.036C206.446 203.531 206.222 204.235 206.222 205.15C206.222 206.074 206.446 206.788 206.894 207.292C207.342 207.796 207.93 208.048 208.658 208.048C209.218 208.048 209.685 207.917 210.058 207.656C210.432 207.395 210.688 207.021 210.828 206.536H212.2C211.995 207.32 211.584 207.95 210.968 208.426C210.352 208.893 209.582 209.126 208.658 209.126C207.93 209.126 207.282 208.963 206.712 208.636C206.152 208.309 205.714 207.847 205.396 207.25C205.079 206.653 204.92 205.953 204.92 205.15ZM220.508 201.328L215.888 212.612H214.572L216.084 208.916L212.99 201.328H214.404L216.812 207.544L219.192 201.328H220.508ZM228.643 202.378H227.033V209H225.759V202.378H224.765V201.328H225.759V200.782C225.759 199.923 225.979 199.298 226.417 198.906C226.865 198.505 227.579 198.304 228.559 198.304V199.368C227.999 199.368 227.603 199.48 227.369 199.704C227.145 199.919 227.033 200.278 227.033 200.782V201.328H228.643V202.378ZM231.403 198.64V209H230.129V198.64H231.403ZM236.92 209.126C236.201 209.126 235.548 208.963 234.96 208.636C234.381 208.309 233.924 207.847 233.588 207.25C233.261 206.643 233.098 205.943 233.098 205.15C233.098 204.366 233.266 203.675 233.602 203.078C233.947 202.471 234.414 202.009 235.002 201.692C235.59 201.365 236.248 201.202 236.976 201.202C237.704 201.202 238.362 201.365 238.95 201.692C239.538 202.009 240 202.467 240.336 203.064C240.681 203.661 240.854 204.357 240.854 205.15C240.854 205.943 240.677 206.643 240.322 207.25C239.977 207.847 239.505 208.309 238.908 208.636C238.311 208.963 237.648 209.126 236.92 209.126ZM236.92 208.006C237.377 208.006 237.807 207.899 238.208 207.684C238.609 207.469 238.931 207.147 239.174 206.718C239.426 206.289 239.552 205.766 239.552 205.15C239.552 204.534 239.431 204.011 239.188 203.582C238.945 203.153 238.628 202.835 238.236 202.63C237.844 202.415 237.419 202.308 236.962 202.308C236.495 202.308 236.066 202.415 235.674 202.63C235.291 202.835 234.983 203.153 234.75 203.582C234.517 204.011 234.4 204.534 234.4 205.15C234.4 205.775 234.512 206.303 234.736 206.732C234.969 207.161 235.277 207.483 235.66 207.698C236.043 207.903 236.463 208.006 236.92 208.006ZM252.749 201.328L250.355 209H249.039L247.191 202.91L245.343 209H244.027L241.619 201.328H242.921L244.685 207.768L246.589 201.328H247.891L249.753 207.782L251.489 201.328H252.749ZM256.73 209.126C256.142 209.126 255.614 209.028 255.148 208.832C254.681 208.627 254.312 208.347 254.042 207.992C253.771 207.628 253.622 207.213 253.594 206.746H254.91C254.947 207.129 255.124 207.441 255.442 207.684C255.768 207.927 256.193 208.048 256.716 208.048C257.201 208.048 257.584 207.941 257.864 207.726C258.144 207.511 258.284 207.241 258.284 206.914C258.284 206.578 258.134 206.331 257.836 206.172C257.537 206.004 257.075 205.841 256.45 205.682C255.88 205.533 255.414 205.383 255.05 205.234C254.695 205.075 254.387 204.847 254.126 204.548C253.874 204.24 253.748 203.839 253.748 203.344C253.748 202.952 253.864 202.593 254.098 202.266C254.331 201.939 254.662 201.683 255.092 201.496C255.521 201.3 256.011 201.202 256.562 201.202C257.411 201.202 258.097 201.417 258.62 201.846C259.142 202.275 259.422 202.863 259.46 203.61H258.186C258.158 203.209 257.994 202.887 257.696 202.644C257.406 202.401 257.014 202.28 256.52 202.28C256.062 202.28 255.698 202.378 255.428 202.574C255.157 202.77 255.022 203.027 255.022 203.344C255.022 203.596 255.101 203.806 255.26 203.974C255.428 204.133 255.633 204.263 255.876 204.366C256.128 204.459 256.473 204.567 256.912 204.688C257.462 204.837 257.91 204.987 258.256 205.136C258.601 205.276 258.895 205.491 259.138 205.78C259.39 206.069 259.52 206.447 259.53 206.914C259.53 207.334 259.413 207.712 259.18 208.048C258.946 208.384 258.615 208.65 258.186 208.846C257.766 209.033 257.28 209.126 256.73 209.126Z" fill="#92A5A8"/>
</g>
<defs>
<filter id="filter0_iiii_36_642" x="16" y="16" width="288" height="288" filterUnits="userSpaceOnUse" color-interpolation-filters="sRGB">
<feFlood flood-opacity="0" result="BackgroundImageFix"/>
<feBlend mode="normal" in="SourceGraphic" in2="BackgroundImageFix" result="shape"/>
<feColorMatrix in="SourceAlpha" type="matrix" values="0 0 0 0 0 0 0 0 0 0 0 0 0 0 0 0 0 0 127 0" result="hardAlpha"/>
<feOffset dx="4" dy="4"/>
<feGaussianBlur stdDeviation="5"/>
<feComposite in2="hardAlpha" operator="arithmetic" k2="-1" k3="1"/>
<feColorMatrix type="matrix" values="0 0 0 0 0.0666667 0 0 0 0 0.0901961 0 0 0 0 0.101961 0 0 0 0.9 0"/>
<feBlend mode="normal" in2="shape" result="effect1_innerShadow_36_642"/>
<feColorMatrix in="SourceAlpha" type="matrix" values="0 0 0 0 0 0 0 0 0 0 0 0 0 0 0 0 0 0 127 0" result="hardAlpha"/>
<feOffset dx="-4" dy="-4"/>
<feGaussianBlur stdDeviation="4"/>
<feComposite in2="hardAlpha" operator="arithmetic" k2="-1" k3="1"/>
<feColorMatrix type="matrix" values="0 0 0 0 0.105882 0 0 0 0 0.145098 0 0 0 0 0.164706 0 0 0 0.9 0"/>
<feBlend mode="normal" in2="effect1_innerShadow_36_642" result="effect2_innerShadow_36_642"/>
<feColorMatrix in="SourceAlpha" type="matrix" values="0 0 0 0 0 0 0 0 0 0 0 0 0 0 0 0 0 0 127 0" result="hardAlpha"/>
<feOffset dx="4" dy="-4"/>
<feGaussianBlur stdDeviation="4"/>
<feComposite in2="hardAlpha" operator="arithmetic" k2="-1" k3="1"/>
<feColorMatrix type="matrix" values="0 0 0 0 0.0666667 0 0 0 0 0.0901961 0 0 0 0 0.101961 0 0 0 0.2 0"/>
<feBlend mode="normal" in2="effect2_innerShadow_36_642" result="effect3_innerShadow_36_642"/>
<feColorMatrix in="SourceAlpha" type="matrix" values="0 0 0 0 0 0 0 0 0 0 0 0 0 0 0 0 0 0 127 0" result="hardAlpha"/>
<feOffset dx="-4" dy="4"/>
<feGaussianBlur stdDeviation="4"/>
<feComposite in2="hardAlpha" operator="arithmetic" k2="-1" k3="1"/>
<feColorMatrix type="matrix" values="0 0 0 0 0.0666667 0 0 0 0 0.0901961 0 0 0 0 0.101961 0 0 0 0.2 0"/>
<feBlend mode="normal" in2="effect3_innerShadow_36_642" result="effect4_innerShadow_36_642"/>
</filter>
</defs>
</svg>
